<?xml version="1.0" encoding="UTF-8" standalone="no"?>
<svg
   xmlns:svg="http://www.w3.org/2000/svg"
   xmlns="http://www.w3.org/2000/svg"
   width="256"
   height="256"
   viewBox="0 0 256 256"
   id="cutleaf-logo"
   version="1.1">

  <g
     id="logo-layer"
     transform="matrix(1.0677,0,0,1.0427,-36.009,-425.17)"
     stroke="none"
     stroke-width="1.5"
     >
    <g id="leaf-base" class="leaf-base">
      <path
        id="leaf-base-far"
        class="leaf far"
        d="m 212.17,558.4 c 0.79,2.8 1.41,5.6 1.83,8.51 3.48,23.64 -15.22,29.14 -20.18,52.52 -1.6,7.53 10.15,13.63 10.15,13.63 l 0,0 -8.65,8.58 -77.93,-83.24 z"
        style="fill:#69f03c;" />
      <path
        id="leaf-base-near"
        class="leaf near"
        d="m 34.843,558.4 c 20.808,28.24 46.646,53.43 77.417,65.59 26.36,10.44 30.52,-2.02 53.45,3.11 8.63,1.93 12.13,13.23 12.13,13.23 l 15.46,0.93 -82.18,-82.86 z"
        style="fill:#46af50;" />
      <path
        id="stem-base"
        class="stem"
        d="m 125.21,558.4 c 50.49,47.86 72.06,75.52 92.69,81.15 l -9.68,11.86 -29.48,-7.09 C 178.43,631.14 147.45,598 106.41,558.4 Z"
        style="fill:#1B5E20;" />
    </g>
    <g id="leaf-tip" class="leaf-tip">
      <path
        id="leaf-tip-far"
        class="leaf far"
        d="M 170.24,533.19 33.726,406.85 c 0,0 212.454,32.91 238.834,126.46 z"
        style="fill:#69f03c;" />
      <path
        id="leaf-tip-near"
        class="leaf near"
        d="M 174.47,533.31 33.726,406.85 c 0,0 19.521,69.5 61.508,126.46 z"
        style="fill:#46af50;" />
      <path
        id="stem-tip"
        class="stem"
        d="M 166.8,533.31 C 125.08,493.07 74.652,446.07 33.726,406.85 104.97,458.57 151.54,500.59 186.07,533.31 Z"
        style="fill:#1B5E20;" />
    </g>
  </g>
</svg>
